<svg id="Capa_1" enable-background="new 0 0 512 512" height="512" viewBox="0 0 512 512" width="512" xmlns="http://www.w3.org/2000/svg"><path d="m33.032 189.935c-2.113 0-4.226-.806-5.839-2.419-3.226-3.226-3.226-8.452 0-11.677 8.96-8.96 14.097-21.363 14.097-34.032v-26.194c0-22.766 18.524-41.29 41.29-41.29h16.516c4.565 0 8.258 3.694 8.258 8.258s-3.694 8.258-8.258 8.258h-16.515c-13.661 0-24.774 11.113-24.774 24.774v26.194c0 17.016-6.903 33.677-18.935 45.71-1.614 1.612-3.727 2.418-5.84 2.418z" fill="#9b959d"/><path d="m338.581 16.516h-141.952c-18.175 0-35.493 2.221-51.629 10.484-43.621 22.337-69.332 72.577-54 119.257 18.197 55.402 63.5 134.518 63.5 134.518h18.919v-87.428c17.262 3.065 36.873 4.847 57.806 4.847 20.909 0 40.556-1.75 57.806-4.81v87.391h33.032c20.215-62.496 33.507-127.933 41.29-173.42z" fill="#b6b1b7"/><path d="m231.226 206.452c-26.621 0-53.065-3.331-76.468-9.637-4.403-1.185-7.016-5.718-5.831-10.121 1.185-4.411 5.766-7.032 10.121-5.831 44.065 11.871 100.29 11.871 144.355 0 4.363-1.153 8.935 1.419 10.121 5.831 1.185 4.403-1.427 8.935-5.831 10.121-23.403 6.306-49.846 9.637-76.467 9.637z" fill="#9b959d"/><path d="m363.355 0h-45.009c-22.546 0-38.467 22.088-31.337 43.478l17.387 52.16c5.62 16.861 21.399 28.233 39.171 28.233 11.449 0 21.772-5.979 28.425-14.259l49.169-35.289v-16.517c0-31.925-25.881-57.806-57.806-57.806z" fill="#c8c5c9"/><path d="m478.968 41.29c-22.766 0-41.29 18.524-41.29 41.29v49.548c0 4.56-3.697 8.258-8.258 8.258s-8.258-3.698-8.258-8.258v-57.805h-28.863c-7.137 0-12.388 5.978-12.427 13.114-.047 8.405-3.068 16.02-7.878 22.175 2.029 27.162 23.528 47.291 49.169 47.291h8.258c13.682 0 24.774-11.092 24.774-24.774v-49.548c0-13.661 11.113-24.774 24.774-24.774 4.565 0 8.258-3.694 8.258-8.258s-3.695-8.259-8.259-8.259z" fill="#b6b1b7"/><circle cx="388.129" cy="57.806" fill="#fff" r="8.258"/><path d="m196.629 16.516h-16.517c-67.307 0-115.277 65.794-94.273 129.74 18.197 55.402 62.806 134.518 62.806 134.518h16.517s-44.609-79.115-62.806-134.518c-21.004-63.946 26.966-129.74 94.273-129.74z" fill="#9b959d"/><circle cx="231.226" cy="371.613" fill="#8ED1DC" r="140.387"/><path d="m131.957 470.882c54.825 54.825 143.713 54.825 198.537 0l-198.537-198.538c-54.824 54.825-54.824 143.713 0 198.538z" fill="#1CA3BA"/><ellipse cx="231.226" cy="371.613" fill="#55BACB" rx="58.393" ry="140.387" transform="matrix(.707 -.707 .707 .707 -195.046 272.344)"/></svg>
